<svg width="91" height="92" viewBox="0 0 91 92" fill="none" xmlns="http://www.w3.org/2000/svg">
<path d="M90.7305 46C90.7305 71.024 70.3893 91.3652 45.3652 91.3652C20.3412 91.3652 0 71.024 0 46C0 20.976 20.3412 0.634766 45.3652 0.634766C70.3893 0.634766 90.7305 20.976 90.7305 46Z" fill="#1F2937"/>
<path d="M45.3652 0.634766C70.3893 0.634766 90.7305 20.976 90.7305 46C90.7305 71.024 70.3893 91.3652 45.3652 91.3652" fill="#101721"/>
<path d="M13.3174 13.9517C31.0245 -3.75538 59.707 -3.75538 77.4141 13.9517C95.1211 31.6588 95.1211 60.3413 77.4141 78.0484" fill="#161E2A"/>
<path d="M38.9264 66.6333C38.6337 66.6333 38.1947 66.4869 37.902 66.3406C37.1703 66.0479 36.585 65.1699 36.585 64.4382V37.0727C36.585 36.341 37.1703 35.463 37.902 35.1703C38.6337 34.8776 39.5118 34.8776 40.2434 35.3166L58.8286 49.0725C59.4139 49.5116 59.7066 50.0969 59.7066 50.8286C59.7066 51.5603 59.4139 52.1457 58.8286 52.5847L40.2434 66.3406C39.8044 66.4869 39.3654 66.6333 38.9264 66.6333Z" fill="#101721"/>
<path d="M38.9264 61.8047C38.6337 61.8047 38.1947 61.6583 37.902 61.512C37.1703 61.2193 36.585 60.3413 36.585 59.6096V32.2441C36.585 31.5124 37.1703 30.6344 37.902 30.3417C38.6337 30.049 39.5118 30.049 40.2434 30.488L58.8286 44.2439C59.4139 44.6829 59.7066 45.2683 59.7066 46C59.7066 46.7317 59.4139 47.3171 58.8286 47.7561L40.2434 61.512C39.8044 61.6583 39.3654 61.8047 38.9264 61.8047Z" fill="white"/>
</svg>
