<svg width="141" height="76" viewBox="0 0 141 76" fill="none" xmlns="http://www.w3.org/2000/svg">
<path fill-rule="evenodd" clip-rule="evenodd" d="M100.627 25.3794C100.782 25.9231 100.592 26.6512 99.8461 26.9088C95.598 28.6327 91.8534 32.4446 89.7741 36.935C87.6942 41.4266 87.3089 46.5291 89.6687 50.8474C92.3966 55.8157 97.3076 57.2977 102.47 56.7028C102.91 49.7159 106.697 43.1953 111.995 38.7279L111.997 38.7269C114.354 36.7536 117.346 36.2617 119.699 37.1915C122.086 38.1347 123.723 40.5049 123.392 44.0271L123.392 44.0293C123.012 47.8901 120.68 51.3798 117.417 54.1255C114.26 56.7822 110.194 58.7753 106.052 59.7665C106.136 60.2767 106.229 60.7908 106.38 61.2436L106.383 61.2525L106.386 61.2615C109.92 73.481 125.177 75.9427 132.987 66.1045L132.993 66.0957L133.001 66.0874C133.59 65.4138 134.464 65.6017 134.964 65.9851C135.226 66.186 135.449 66.4765 135.534 66.8258C135.623 67.1901 135.553 67.5827 135.285 67.9284C130.726 73.9714 123.551 77.7593 115.694 75.1761L115.692 75.1755C109.133 72.9891 103.55 67.4265 102.61 60.3395C97.2618 60.8535 92.0721 59.5525 88.7981 55.6446L88.7955 55.6415C84.5523 50.4853 84.0621 43.5825 86.1481 37.5636C88.2323 31.5501 92.9144 26.3385 99.1298 24.5664C99.4843 24.4514 99.8279 24.495 100.106 24.669C100.376 24.8375 100.548 25.1046 100.627 25.3794ZM116.826 39.942C117.394 39.7455 117.827 39.8037 118.173 39.9847C118.536 40.1744 118.854 40.5256 119.122 40.996C119.661 41.9415 119.911 43.2178 119.961 44.0099C120.053 45.8769 118.737 47.6197 117.374 49.0866L117.369 49.092L117.365 49.0976C114.745 52.1046 110.434 54.7637 105.948 56.0698C106.403 52.3563 108.24 48.7272 110.384 45.6079C112.053 43.3127 114.165 40.8292 116.821 39.9438L116.821 39.9438L116.826 39.942ZM139.189 62.0713C136.252 62.0713 133.185 62.2807 130.316 63.0244L130.316 63.0244L130.31 63.0259C129.913 63.1341 129.615 63.3673 129.453 63.6876C129.296 63.9997 129.293 64.3469 129.39 64.6483C129.585 65.2533 130.213 65.7523 131.038 65.6023C133.115 65.2246 135.29 65.2848 137.436 65.3793C137.343 66.5917 137.242 67.848 137.062 69.0229C137.016 69.2475 136.944 69.5025 136.86 69.796L136.86 69.7964L136.848 69.8401C136.76 70.1483 136.664 70.4907 136.595 70.8371C136.46 71.5128 136.402 72.3145 136.809 72.9925C137.032 73.3652 137.356 73.5802 137.731 73.6427C138.083 73.7013 138.435 73.6191 138.737 73.4982L138.737 73.4983L138.743 73.4958C139.593 73.1415 139.951 72.2537 140.137 71.4809C140.235 71.0776 140.296 70.6597 140.345 70.282C140.358 70.1843 140.37 70.0904 140.381 70.0003L140.381 69.9982C140.415 69.73 140.445 69.4947 140.482 69.292L140.482 69.292L140.483 69.2853C140.801 67.377 140.906 65.5785 140.906 63.6839C140.906 63.2111 140.67 62.805 140.359 62.5278C140.047 62.2513 139.627 62.0713 139.189 62.0713Z" fill="#1F2937"/>
<path d="M9.13144 0.746582V28.8717H14.684V35.9084H0V0.746582H9.13144Z" fill="white"/>
<path d="M34.0094 0.746582L39.2323 35.9127H29.9013L29.4111 29.5927H26.1447L25.5937 35.9127H16.1543L20.8089 0.746582H34.0094ZM29.1682 23.3553C28.7041 19.3721 28.2442 14.4508 27.7757 8.58686C26.8474 15.3195 26.2618 20.2452 26.0232 23.3553H29.1682Z" fill="white"/>
<path d="M61.587 0.746582V24.2457C61.587 26.9084 61.5002 28.7805 61.3267 29.862C61.1532 30.9393 60.6413 32.0469 59.7867 33.1849C58.9322 34.323 57.8086 35.183 56.4118 35.7694C55.015 36.3558 53.3709 36.6512 51.4752 36.6512C49.3799 36.6512 47.5276 36.3037 45.9226 35.6087C44.3175 34.9137 43.1159 34.0102 42.3221 32.8939C41.5282 31.7776 41.0554 30.6048 40.9122 29.3625C40.7691 28.1246 40.6953 25.5227 40.6953 21.5526V0.746582H49.8268V27.1125C49.8268 28.6458 49.9092 29.6275 50.0784 30.0575C50.2432 30.4832 50.5816 30.7004 51.0891 30.7004C51.6661 30.7004 52.0391 30.4658 52.204 29.9967C52.3688 29.5276 52.4556 28.4156 52.4556 26.6608V0.746582H61.587Z" fill="white"/>
<path d="M83.4412 0.746582V35.9127H75.4376L70.6876 19.9281V35.9127H63.0527V0.746582H70.6876L75.8064 16.5792V0.746582H83.4412V0.746582Z" fill="white"/>
<path d="M106.492 16.0585H97.3606V9.94695C97.3606 8.1704 97.2608 7.06277 97.0656 6.61971C96.8704 6.18101 96.4409 5.95948 95.7729 5.95948C95.0224 5.95948 94.5452 6.22879 94.3413 6.76306C94.1375 7.29732 94.0377 8.45708 94.0377 10.238V26.5701C94.0377 28.2771 94.1375 29.3934 94.3413 29.9147C94.5452 30.4359 95.0007 30.6965 95.7078 30.6965C96.4149 30.6965 96.8313 30.4359 97.0439 29.9147C97.2521 29.3934 97.3606 28.1642 97.3606 26.2356V21.8138H106.492V23.182C106.492 26.822 106.236 29.4021 105.72 30.9267C105.208 32.4514 104.071 33.7849 102.315 34.9272C100.558 36.0696 98.393 36.6473 95.8163 36.6473C93.2395 36.6473 90.936 36.1608 89.2008 35.1922C87.4657 34.2236 86.3161 32.877 85.7522 31.1613C85.1882 29.4456 84.9062 26.8654 84.9062 23.4166V13.1482C84.9062 10.6159 84.993 8.71335 85.1665 7.44501C85.3401 6.17666 85.8563 4.9561 86.7195 3.78331C87.5784 2.61053 88.7714 1.68533 90.2984 1.01207C91.8253 0.338804 93.5779 0 95.5603 0C98.2499 0 100.471 0.521237 102.219 1.56371C103.967 2.60619 105.117 3.90494 105.668 5.45562C106.219 7.01064 106.492 9.43005 106.492 12.7095V16.0498V16.0585Z" fill="white"/>
<path d="M128.956 0.746582V35.9127H119.824V21.14H117.091V35.9084H107.96V0.746582H117.091V13.3214H119.824V0.746582H128.956Z" fill="white"/>
<path d="M20.3885 40.0947V75.2609H12.3849L7.63484 59.2763V75.2609H0V40.0947H7.63484L12.7536 55.9273V40.0947H20.3885Z" fill="white"/>
<path d="M42.9018 60.6842C42.9018 64.2156 42.8193 66.7176 42.6545 68.19C42.4897 69.6582 41.9691 71.0047 41.0928 72.221C40.2166 73.4372 39.0366 74.3711 37.5444 75.0226C36.0564 75.6741 34.3212 75.9999 32.3388 75.9999C30.3563 75.9999 28.7686 75.6915 27.272 75.0791C25.7754 74.4623 24.5695 73.5414 23.6585 72.3078C22.7475 71.0786 22.2053 69.7364 22.0318 68.29C21.8582 66.8435 21.7715 64.3068 21.7715 60.6886V54.6726C21.7715 51.1412 21.8539 48.6393 22.0231 47.1668C22.1879 45.6987 22.7085 44.3565 23.5848 43.1359C24.461 41.9197 25.641 40.9858 27.1332 40.3343C28.6211 39.6827 30.3563 39.3569 32.3388 39.3569C34.3212 39.3569 35.9089 39.6653 37.4055 40.2778C38.9021 40.8946 40.1081 41.8154 41.0191 43.049C41.9301 44.2783 42.4723 45.6205 42.6458 47.0669C42.8193 48.5133 42.9061 51.05 42.9061 54.6683V60.6842H42.9018ZM33.7703 49.1301C33.7703 47.4926 33.6792 46.4501 33.5014 45.994C33.3192 45.5379 32.9504 45.3077 32.3822 45.3077C31.905 45.3077 31.5406 45.4902 31.289 45.8594C31.0374 46.2286 30.9073 47.3188 30.9073 49.1301V65.5491C30.9073 67.5906 30.9897 68.8503 31.1589 69.3281C31.3237 69.8059 31.7141 70.0448 32.3214 70.0448C32.9288 70.0448 33.3409 69.7711 33.5144 69.2195C33.6879 68.6678 33.7747 67.3604 33.7747 65.2885V49.1301H33.7703Z" fill="white"/>
<path d="M80.4871 40.0947L76.4224 75.2609H65.0222C63.9767 69.8574 63.0571 63.7111 62.2589 56.8221C61.8945 59.7758 61.0443 65.922 59.7125 75.2609H48.3774L44.291 40.0947H53.1622L54.1252 52.3655L55.0579 64.228C55.3962 58.0904 56.2378 50.046 57.5826 40.0991H67.0654C67.1912 41.1285 67.5252 44.9944 68.0631 51.6966L69.0739 65.075C69.5944 56.5615 70.4447 48.2391 71.6246 40.0991H80.4958L80.4871 40.0947Z" fill="white"/>
</svg>
